<svg width="600" height="600" viewBox="0 0 600 600" fill="none" xmlns="http://www.w3.org/2000/svg">
<g clip-path="url(#clip0_631_128)">
<path fill-rule="evenodd" clip-rule="evenodd" d="M100 170.586C100 133.345 130.345 103 168.276 103H428.276C465.517 103 496.552 133.345 496.552 170.586V389.897C496.552 428.517 446.897 445.069 422.759 414.724L348.276 318.862V435.414C348.276 468.517 320.69 496.103 286.207 496.103H168.276C130.345 496.103 100 465.759 100 428.517L100 170.586ZM168.276 156.793C160.69 156.793 154.483 163 154.483 170.586V427.828C154.483 435.414 160.69 441.621 168.276 441.621H288.276C292.414 441.621 293.103 438.172 293.103 434.724V279.552C293.103 240.241 342.759 223.69 366.897 254.034L441.379 349.897V170.586C441.379 163 442.069 156.793 434.483 156.793H168.276Z" fill="#32C0ED"/>
<path fill-rule="evenodd" clip-rule="evenodd" d="M100 170.586C100 133.345 130.345 103 168.276 103H428.276C465.517 103 496.552 133.345 496.552 170.586V389.897C496.552 428.517 446.897 445.069 422.759 414.724L348.276 318.862V435.414C348.276 468.517 320.69 496.103 286.207 496.103H168.276C130.345 496.103 100 465.759 100 428.517L100 170.586ZM168.276 156.793C160.69 156.793 154.483 163 154.483 170.586V427.828C154.483 435.414 160.69 441.621 168.276 441.621H288.276C292.414 441.621 293.103 438.172 293.103 434.724V279.552C293.103 240.241 342.759 223.69 366.897 254.034L441.379 349.897V170.586C441.379 163 442.069 156.793 434.483 156.793H168.276Z" fill="url(#paint0_linear_631_128)"/>
<path opacity="0.3" fill-rule="evenodd" clip-rule="evenodd" d="M100 170.586C100 133.345 130.345 103 168.276 103H428.276C465.517 103 496.552 133.345 496.552 170.586V389.897C496.552 428.517 446.897 445.069 422.759 414.724L348.276 318.862V435.414C348.276 468.517 320.69 496.103 286.207 496.103H168.276C130.345 496.103 100 465.759 100 428.517L100 170.586ZM168.276 156.793C160.69 156.793 154.483 163 154.483 170.586V427.828C154.483 435.414 160.69 441.621 168.276 441.621H288.276C292.414 441.621 293.103 438.172 293.103 434.724V279.552C293.103 240.241 342.759 223.69 366.897 254.034L441.379 349.897V170.586C441.379 163 442.069 156.793 434.483 156.793H168.276Z" fill="url(#paint1_linear_631_128)"/>
<path d="M428.276 103C465.517 103 496.552 133.345 496.552 170.586V389.897C496.552 428.517 446.897 445.069 422.759 414.724L348.276 318.862V435.414C348.276 468.517 320.69 496.103 286.207 496.103C290.345 496.103 293.104 493.345 293.104 489.207V279.552C293.104 240.931 342.759 224.379 366.897 254.724L441.379 350.586V116.793C441.379 109.207 435.173 103 428.276 103Z" fill="#63F655"/>
</g>
<defs>
<linearGradient id="paint0_linear_631_128" x1="497.159" y1="496.103" x2="152.109" y2="98.5043" gradientUnits="userSpaceOnUse">
<stop stop-color="#2EF51C"/>
<stop offset="1" stop-color="#2EF51C" stop-opacity="0"/>
</linearGradient>
<linearGradient id="paint1_linear_631_128" x1="496.283" y1="495.869" x2="261.724" y2="403.427" gradientUnits="userSpaceOnUse">
<stop stop-opacity="0.9"/>
<stop offset="1" stop-color="#1A1A1A" stop-opacity="0"/>
</linearGradient>
<clipPath id="clip0_631_128">
<rect width="400" height="393.103" fill="white" transform="translate(100 103)"/>
</clipPath>
</defs>
</svg>
